Genre:Thriller / Comedie / Actiune
Language:English
IMDb:http://www.imdb.com/title/tt1013743/
Source Video:Relizlab.Thanks
Source Audio:PrisM/IMAGiNE.Thanks
SAMPLES:YES
Encoder: Tony2
..........................................
General
Complete name : Knight.And.Day.2010.CAM.MP4.FEEL-FREE
Format : MPEG-4
Format profile : Base Media
Codec ID : isom
File size : 704 MiB
Duration : 1h 44mn
Overall bit rate : 946 Kbps
...........................................
Video
ID : 1
Format : AVC
Format/Info : Advanced Video Codec
Format profile : Main@L2.0
Format settings, CABAC : Yes
Format settings, ReFrames : 1 frame
Codec ID : avc1
Codec ID/Info : Advanced Video Coding
Duration : 1h 44mn
Bit rate mode : Variable
Bit rate : 775 Kbps
Width : 720 pixels
Height : 304 pixels
Display aspect ratio : 2.35:1
Frame rate mode : Constant
Frame rate : 29.970 fps
Resolution : 24 bits
Colorimetry : 4:2:0
Scan type : Progressive
Bits/(Pixel*Frame) : 0.118
Stream size : 577 MiB (82%)
............................................
Audio
ID : 2
Format : AAC
Format/Info : Advanced Audio Codec
Format version : Version 4
Format profile : LC
Format settings, SBR : No
Codec ID : 40
Duration : 1h 44mn
Bit rate mode : Variable
Bit rate : 165 Kbps
Channel(s) : 2 channels
Channel positions : L R
Sampling rate : 48.0 KHz
Resolution : 16 bits
Stream size : 123 MiB (17%)
............................................
Plot: 
June Havens (Diaz) finds her everyday life tangled with that of a secret agent (Cruise) who has realized
...................................................
Screenshots: 
http://postimg.com/image/18000/17008.jpg 
http://postimg.com/image/18000/17007.jpg

........................................................